<svg xmlns="http://www.w3.org/2000/svg" width="24" height="24" viewBox="0 0 24 24" fill="none">
  <!-- noodles -->
  <path d="M3 9c1.2-1.2 3.2-1.2 4.4 0s3.2 1.2 4.4 0 3.2-1.2 4.4 0 3.2 1.2 4.4 0" stroke="currentColor" stroke-width="2" stroke-linecap="round" stroke-linejoin="round"></path>
  <!-- hanging noodles -->
  <path d="M7 9c0 3 0 4 1.5 6M11 9c0 3 0 4 1.5 6M15 9c0 3 0 4 1.5 6" stroke="currentColor" stroke-width="2" stroke-linecap="round" stroke-linejoin="round"></path>
  <!-- bowl rim -->
  <path d="M3 15h18" stroke="currentColor" stroke-width="2" stroke-linecap="round"></path>
  <!-- bowl body -->
  <path d="M4.5 15c.8 3.5 4.7 5.5 7.5 5.5S18.2 18.5 19.5 15" stroke="currentColor" stroke-width="2" stroke-linecap="round" stroke-linejoin="round"></path>
  <!-- little steam -->
  <path d="M6 6c.6-.6 1.6-.6 2.2 0M10 6c.6-.6 1.6-.6 2.2 0M14 6c.6-.6 1.6-.6 2.2 0" stroke="currentColor" stroke-width="2" stroke-linecap="round" stroke-linejoin="round"></path>
</svg>
