<?xml version="1.0" encoding="UTF-8"?>
<svg xmlns="http://www.w3.org/2000/svg" viewBox="0 0 800 600" role="img" aria-labelledby="title desc">
  <title>Minimal Antenna</title>
  <desc>Three-color vector antenna with layered groups for parallax.</desc>
  <style>
    :root{
      --c1:#0f172a; /* main body */
      --c2:#334155; /* details */
      --c3:#22d3ee; /* signal */
    }
    .body{ fill: var(--c1); }
    .detail{ fill: var(--c2); }
    .accent{ fill: var(--c3); }
    .wave{ fill:none; stroke: var(--c3); stroke-width: 12; stroke-linecap: round; opacity: .85; }
  </style>

  <!-- Layer: back (signal waves) -->
  <g id="layer-back">
    <!-- Concentric arcs around antenna tip at (400,180) -->
    <path class="wave" d="M272,220 A160,160 0 0 1 528,220"/>
    <path class="wave" d="M244,210 A190,190 0 0 1 556,210" opacity=".6"/>
    <path class="wave" d="M216,200 A220,220 0 0 1 584,200" opacity=".35"/>
  </g>

  <!-- Layer: mid (mast and dish) -->
  <g id="layer-mid">
    <!-- Mast shadow -->
    <rect x="386" y="190" width="28" height="260" rx="10" class="detail" opacity=".35"/>
    <!-- Mast -->
    <rect x="380" y="180" width="40" height="280" rx="12" class="body"/>
    <!-- Crossbars -->
    <rect x="350" y="230" width="100" height="10" rx="5" class="detail"/>
    <rect x="350" y="280" width="100" height="10" rx="5" class="detail"/>
    <rect x="350" y="330" width="100" height="10" rx="5" class="detail"/>
    <!-- Base -->
    <rect x="320" y="440" width="160" height="40" rx="12" class="body"/>
    <rect x="336" y="448" width="128" height="16" rx="8" class="detail"/>
    <!-- Side dish -->
    <rect x="436" y="230" width="84" height="10" rx="5" class="detail"/>
    <path d="M540,236 a34,34 0 1 0 0,36 a44,44 0 0 1 0,-36 z" class="body"/>
    <path d="M528,242 a18,18 0 0 0 0,24 a26,26 0 0 1 0,-24 z" class="accent"/>
  </g>

  <!-- Layer: front (tip + glow) -->
  <g id="layer-front">
    <!-- Tip -->
    <circle cx="400" cy="180" r="10" class="body"/>
    <circle cx="400" cy="180" r="6" class="accent"/>
    <!-- Subtle glow ring using same color with opacity -->
    <circle cx="400" cy="180" r="22" class="accent" opacity=".2"/>
  </g>
</svg>
