<?xml version="1.0" encoding="UTF-8"?>
<svg xmlns="http://www.w3.org/2000/svg" viewBox="0 0 800 600" role="img" aria-labelledby="title desc">
  <title>Minimal Cloud</title>
  <desc>Three-color vector cloud with layered groups for parallax.</desc>
  <style>
    :root{
      --c1:#0f172a; /* body */
      --c2:#334155; /* shadow/detail */
      --c3:#22d3ee; /* highlight/accent */
    }
    .body{ fill: var(--c1); }
    .detail{ fill: var(--c2); }
    .accent{ fill: var(--c3); }
  </style>

  <!-- Layer: back (distant puffs) -->
  <g id="layer-back" opacity=".55">
    <ellipse cx="250" cy="290" rx="90" ry="70" class="detail"/>
    <ellipse cx="560" cy="290" rx="95" ry="72" class="detail"/>
  </g>

  <!-- Layer: mid (main cloud) -->
  <g id="layer-mid">
    <!-- Core blobs -->
    <circle cx="400" cy="300" r="120" class="body"/>
    <circle cx="305" cy="320" r="92" class="body"/>
    <circle cx="495" cy="320" r="92" class="body"/>
    <circle cx="350" cy="240" r="70" class="body"/>
    <circle cx="450" cy="240" r="70" class="body"/>
    <!-- Flat bottom cap -->
    <rect x="260" y="330" width="280" height="86" rx="50" class="body"/>
    <!-- Soft drop shadow -->
    <ellipse cx="400" cy="405" rx="180" ry="24" class="detail" opacity=".25"/>
  </g>

  <!-- Layer: front (highlights) -->
  <g id="layer-front">
    <!-- Top highlight swash -->
    <path class="accent" opacity=".85"
      d="M320,255
         q40,-25 80,-18
         q40,7 75,34
         q-10,10 -26,8
         q-44,-14 -83,-10
         q-30,3 -46,9
         q-12,-6 0,-23 z"/>
    <!-- Small glints -->
    <circle cx="332" cy="286" r="10" class="accent" opacity=".6"/>
    <circle cx="470" cy="282" r="8" class="accent" opacity=".45"/>
  </g>
</svg>
