<?xml version="1.0" encoding="UTF-8"?>
<svg xmlns="http://www.w3.org/2000/svg" viewBox="0 0 800 600" role="img" aria-labelledby="title desc">
  <title>Minimal Satellite</title>
  <desc>Three-color vector satellite with layered groups for parallax.</desc>
  <style>
    :root{
      --c1:#0f172a; /* main body */
      --c2:#334155; /* details */
      --c3:#22d3ee; /* accents */
    }
    .body{ fill: var(--c1); }
    .detail{ fill: var(--c2); }
    .accent{ fill: var(--c3); }
  </style>

  <!-- Layer: back (solar panels) -->
  <g id="layer-back" transform="translate(0,0)">
    <!-- Left panel frame -->
    <rect x="120" y="210" width="200" height="180" rx="10" class="detail"/>
    <rect x="136" y="226" width="168" height="148" rx="6" class="accent" opacity="0.85"/>
    <!-- Left panel cells -->
    <g class="body" opacity="0.28">
      <rect x="148" y="240" width="40" height="28" rx="4"/>
      <rect x="196" y="240" width="40" height="28" rx="4"/>
      <rect x="244" y="240" width="40" height="28" rx="4"/>
      <rect x="148" y="276" width="40" height="28" rx="4"/>
      <rect x="196" y="276" width="40" height="28" rx="4"/>
      <rect x="244" y="276" width="40" height="28" rx="4"/>
      <rect x="148" y="312" width="40" height="28" rx="4"/>
      <rect x="196" y="312" width="40" height="28" rx="4"/>
      <rect x="244" y="312" width="40" height="28" rx="4"/>
    </g>

    <!-- Right panel frame -->
    <rect x="480" y="210" width="200" height="180" rx="10" class="detail"/>
    <rect x="496" y="226" width="168" height="148" rx="6" class="accent" opacity="0.85"/>
    <!-- Right panel cells -->
    <g class="body" opacity="0.28">
      <rect x="508" y="240" width="40" height="28" rx="4"/>
      <rect x="556" y="240" width="40" height="28" rx="4"/>
      <rect x="604" y="240" width="40" height="28" rx="4"/>
      <rect x="508" y="276" width="40" height="28" rx="4"/>
      <rect x="556" y="276" width="40" height="28" rx="4"/>
      <rect x="604" y="276" width="40" height="28" rx="4"/>
      <rect x="508" y="312" width="40" height="28" rx="4"/>
      <rect x="556" y="312" width="40" height="28" rx="4"/>
      <rect x="604" y="312" width="40" height="28" rx="4"/>
    </g>
  </g>

  <!-- Layer: mid (truss + main bus) -->
  <g id="layer-mid">
    <!-- Truss -->
    <rect x="320" y="288" width="160" height="24" rx="6" class="detail"/>
    <!-- Bus shadow -->
    <rect x="356" y="252" width="88" height="96" rx="10" class="detail" opacity="0.35"/>
    <!-- Bus -->
    <rect x="348" y="244" width="104" height="112" rx="14" class="body"/>
    <!-- Bus stripe -->
    <rect x="360" y="258" width="80" height="12" rx="6" class="accent"/>
    <rect x="360" y="330" width="80" height="8" rx="4" class="accent" opacity="0.7"/>
    <!-- Port/vents -->
    <g class="detail">
      <rect x="364" y="282" width="16" height="8" rx="2"/>
      <rect x="386" y="282" width="16" height="8" rx="2"/>
      <rect x="408" y="282" width="16" height="8" rx="2"/>
    </g>
  </g>

  <!-- Layer: front (antenna + sensors) -->
  <g id="layer-front">
    <!-- Antenna boom -->
    <rect x="432" y="256" width="100" height="8" rx="4" class="detail"/>
    <!-- Dish -->
    <path d="M540,260 a36,36 0 1 0 0,40 a48,48 0 0 1 0,-40 z" class="body"/>
    <!-- Dish highlight -->
    <path d="M528,268 a20,20 0 0 0 0,24 a28,28 0 0 1 0,-24 z" class="accent" opacity="0.9"/>
    <!-- Feed horn -->
    <rect x="520" y="276" width="18" height="8" rx="4" class="detail"/>
    <!-- Sensors / lights -->
    <circle cx="332" cy="300" r="4" class="accent"/>
    <circle cx="468" cy="300" r="4" class="accent" opacity="0.6"/>
  </g>
</svg>
